<svg width="1024" height="1024" viewBox="0 0 1024 1024" fill="none" xmlns="http://www.w3.org/2000/svg">
<g filter="url(#filter0_d_0_1)">
<rect x="100" y="100" width="824" height="824" rx="184" fill="white"/>
<rect x="100" y="100" width="824" height="824" rx="184" fill="white"/>
</g>
<path d="M332.125 332.125H255.25V306.5H332.125V332.125ZM537.125 460.25C494.741 460.25 460.25 494.741 460.25 537.125C460.25 579.509 494.741 614 537.125 614C579.509 614 614 579.509 614 537.125C614 494.741 579.509 460.25 537.125 460.25ZM819 357.75V742.125H204V357.75H355.956C373.099 357.75 389.089 349.191 398.596 334.918L434.625 280.875H639.625L675.654 334.918C685.161 349.191 701.151 357.75 718.294 357.75H819ZM332.125 460.25C332.125 446.105 320.671 434.625 306.5 434.625C292.329 434.625 280.875 446.105 280.875 460.25C280.875 474.395 292.329 485.875 306.5 485.875C320.671 485.875 332.125 474.395 332.125 460.25ZM665.25 537.125C665.25 466.374 607.876 409 537.125 409C466.374 409 409 466.374 409 537.125C409 607.876 466.374 665.25 537.125 665.25C607.876 665.25 665.25 607.876 665.25 537.125Z" fill="#08C0DD"/>
<rect x="636" y="577" width="219" height="220" fill="#08C0DD"/>
<path d="M867.5 579C867.5 572.547 862.383 565.5 854 565.5H638C629.63 565.5 624.5 572.506 624.5 579V795C624.5 803.383 631.52 808.5 638 808.5H854C860.453 808.5 867.5 803.383 867.5 795V579ZM827 730.875C827 736.464 822.464 741 816.875 741H756.125C750.536 741 746 736.464 746 730.875C746 725.286 750.536 720.75 756.125 720.75H816.875C822.464 720.75 827 725.286 827 730.875ZM668.078 723.626C666.04 721.803 665 719.292 665 716.754C665 711.692 669.104 707.547 674.221 707.547C676.408 707.547 678.595 708.316 680.363 709.882L690.434 718.86L712.844 694.358C714.68 692.373 717.151 691.374 719.648 691.374C724.792 691.374 728.882 695.518 728.882 700.581C728.882 702.781 728.086 705.009 726.466 706.778L697.9 738.003C696.091 739.987 693.593 741 691.096 741C688.909 741 686.708 740.23 684.953 738.664L668.078 723.626ZM827 687.027C827 692.616 822.464 697.152 816.875 697.152H756.125C750.536 697.152 746 692.616 746 687.027C746 681.438 750.536 676.902 756.125 676.902H816.875C822.464 676.902 827 681.438 827 687.027ZM668.078 665.251V665.265C666.04 663.443 665 660.918 665 658.393C665 653.317 669.104 649.187 674.221 649.187C676.408 649.187 678.595 649.956 680.363 651.522L690.434 660.486L712.844 635.983C714.68 633.999 717.151 633 719.648 633C724.792 633 728.882 637.158 728.882 642.207C728.882 644.421 728.086 646.649 726.466 648.417L697.9 679.642C696.091 681.627 693.593 682.626 691.096 682.626C688.909 682.626 686.708 681.857 684.953 680.291L668.078 665.251ZM827 643.125C827 648.714 822.464 653.25 816.875 653.25H756.125C750.536 653.25 746 648.714 746 643.125C746 637.536 750.536 633 756.125 633H816.875C822.464 633 827 637.536 827 643.125Z" fill="#3E3E3E"/>
<defs>
<filter id="filter0_d_0_1" x="78" y="89" width="868" height="868" filterUnits="userSpaceOnUse" color-interpolation-filters="sRGB">
<feFlood flood-opacity="0" result="BackgroundImageFix"/>
<feColorMatrix in="SourceAlpha" type="matrix" values="0 0 0 0 0 0 0 0 0 0 0 0 0 0 0 0 0 0 127 0" result="hardAlpha"/>
<feOffset dy="11"/>
<feGaussianBlur stdDeviation="11"/>
<feColorMatrix type="matrix" values="0 0 0 0 0 0 0 0 0 0 0 0 0 0 0 0 0 0 0.28 0"/>
<feBlend mode="normal" in2="BackgroundImageFix" result="effect1_dropShadow_0_1"/>
<feBlend mode="normal" in="SourceGraphic" in2="effect1_dropShadow_0_1" result="shape"/>
</filter>
</defs>
</svg>
